<?xml version="1.0" encoding="UTF-8"?>
<!-- Generator: Adobe Illustrator 27.7.0, SVG Export Plug-In . SVG Version: 6.00 Build 0)  -->
<svg version="1.1" id="Layer_1" xmlns="http://www.w3.org/2000/svg" xmlns:xlink="http://www.w3.org/1999/xlink" x="0px" y="0px" viewBox="0 0 580 78.9" style="enable-background:new 0 0 580 78.9;" xml:space="preserve">
<style type="text/css">
	.st0{enable-background:new    ;}
	.st1{fill:#999999;}
	.st2{fill:#999999;}
	.st3{fill:#FF4C57;}
</style>
<g class="st0">
	<path class="st1" d="M114.1,64.1c-3-1-5.4-2.3-7.1-3.9l2.3-4.8c1.6,1.5,3.7,2.7,6.3,3.6c2.6,0.9,5.2,1.4,7.9,1.4   c3.6,0,6.2-0.6,8-1.8c1.8-1.2,2.6-2.8,2.6-4.8c0-1.5-0.5-2.7-1.4-3.6c-1-0.9-2.2-1.6-3.6-2.1c-1.4-0.5-3.4-1-6-1.7   c-3.2-0.8-5.9-1.6-7.8-2.3c-2-0.8-3.7-2-5.1-3.6c-1.4-1.6-2.1-3.8-2.1-6.5c0-2.3,0.6-4.4,1.8-6.2c1.2-1.8,3-3.3,5.5-4.4   c2.5-1.1,5.5-1.7,9.2-1.7c2.5,0,5,0.3,7.5,1c2.5,0.7,4.6,1.6,6.3,2.8l-2,4.9c-1.8-1.1-3.7-2-5.8-2.6c-2.1-0.6-4.1-0.9-6-0.9   c-3.5,0-6.1,0.6-7.8,1.9c-1.7,1.3-2.6,2.9-2.6,4.9c0,1.5,0.5,2.7,1.5,3.6c1,0.9,2.2,1.6,3.7,2.2c1.5,0.5,3.4,1.1,5.9,1.6   c3.2,0.8,5.8,1.6,7.8,2.3c2,0.8,3.7,2,5.1,3.6s2.1,3.8,2.1,6.5c0,2.3-0.6,4.3-1.8,6.2c-1.2,1.9-3.1,3.3-5.6,4.4   c-2.5,1.1-5.6,1.6-9.2,1.6C120.2,65.6,117.1,65.1,114.1,64.1z"/>
	<path class="st1" d="M182,26c3.2,2.7,4.8,6.3,4.8,11s-1.6,8.3-4.8,11c-3.2,2.7-7.6,4-13.2,4h-10.6v13H152v-43h16.8   C174.4,22.1,178.8,23.4,182,26z M177.5,44.2c2-1.7,3.1-4,3.1-7.2c0-3.1-1-5.5-3.1-7.2c-2.1-1.7-5-2.5-8.9-2.5h-10.5v19.3h10.5   C172.5,46.7,175.5,45.9,177.5,44.2z"/>
	<path class="st1" d="M206,62.7c-3.5-1.9-6.2-4.5-8.2-7.9c-2-3.4-3-7.1-3-11.3c0-4.1,1-7.9,3-11.3c2-3.4,4.7-6,8.2-7.9   c3.5-1.9,7.4-2.9,11.7-2.9c4.3,0,8.2,1,11.7,2.9c3.5,1.9,6.2,4.5,8.2,7.9c2,3.3,3,7.1,3,11.3c0,4.2-1,7.9-3,11.3   c-2,3.3-4.7,6-8.2,7.9c-3.5,1.9-7.4,2.9-11.7,2.9C213.4,65.6,209.5,64.6,206,62.7z M226.3,58c2.5-1.4,4.5-3.4,6-5.9   c1.5-2.5,2.2-5.3,2.2-8.5c0-3.1-0.7-5.9-2.2-8.5c-1.5-2.5-3.4-4.5-6-5.9c-2.5-1.4-5.4-2.2-8.5-2.2c-3.2,0-6,0.7-8.6,2.2   c-2.6,1.4-4.6,3.4-6,5.9c-1.5,2.5-2.2,5.3-2.2,8.5c0,3.1,0.7,5.9,2.2,8.5c1.5,2.5,3.5,4.5,6,5.9c2.6,1.4,5.4,2.2,8.6,2.2   C220.9,60.1,223.8,59.4,226.3,58z"/>
</g>
<g class="st0">
	<path class="st1" d="M279.8,65.1l-9.3-13.2c-1.1,0.1-2.1,0.1-2.7,0.1h-10.6v13.1H251v-43h16.8c5.6,0,10,1.3,13.2,4   c3.2,2.7,4.8,6.3,4.8,11c0,3.3-0.8,6.2-2.5,8.5c-1.6,2.3-4,4-7,5.1l10.2,14.5H279.8z M276.5,44.3c2-1.7,3.1-4.1,3.1-7.2   c0-3.1-1-5.5-3.1-7.2c-2.1-1.7-5-2.5-8.9-2.5h-10.5v19.4h10.5C271.5,46.8,274.5,45.9,276.5,44.3z"/>
</g>
<g class="st0">
	<path class="st1" d="M306.3,27.4h-14.8v-5.4h35.6v5.4h-14.8v37.7h-6.1V27.4z"/>
</g>
<g class="st0">
	<path class="st1" d="M339,64.1c-3-1-5.4-2.3-7.1-3.9l2.3-4.8c1.6,1.5,3.7,2.7,6.3,3.6s5.2,1.4,7.9,1.4c3.6,0,6.2-0.6,8-1.8   c1.8-1.2,2.6-2.8,2.6-4.8c0-1.5-0.5-2.7-1.4-3.6c-1-0.9-2.2-1.6-3.6-2.1c-1.4-0.5-3.4-1-6-1.7c-3.2-0.8-5.9-1.6-7.8-2.3   c-2-0.8-3.7-2-5.1-3.6c-1.4-1.6-2.1-3.8-2.1-6.5c0-2.3,0.6-4.4,1.8-6.2c1.2-1.8,3-3.3,5.5-4.4c2.5-1.1,5.5-1.7,9.2-1.7   c2.5,0,5,0.3,7.5,1c2.5,0.7,4.6,1.6,6.3,2.8l-2,4.9c-1.8-1.1-3.7-2-5.8-2.6c-2.1-0.6-4.1-0.9-6-0.9c-3.5,0-6.1,0.6-7.8,1.9   c-1.7,1.3-2.6,2.9-2.6,4.9c0,1.5,0.5,2.7,1.5,3.6c1,0.9,2.2,1.6,3.7,2.2c1.5,0.5,3.4,1.1,5.9,1.6c3.2,0.8,5.8,1.6,7.8,2.3   c2,0.8,3.7,2,5.1,3.6c1.4,1.6,2.1,3.8,2.1,6.5c0,2.3-0.6,4.3-1.8,6.2c-1.2,1.9-3.1,3.3-5.6,4.4c-2.5,1.1-5.6,1.6-9.2,1.6   C345.2,65.6,342.1,65.1,339,64.1z"/>
</g>
<g class="st0">
	<path class="st1" d="M417.4,22.1l-18.8,43h-7.9l-18.8-43h8.7l14.3,33.2l14.5-33.2H417.4z"/>
</g>
<g class="st0">
	<path class="st1" d="M426.5,22.1h8v43h-8V22.1z"/>
	<path class="st1" d="M453.8,64.3c-3.1-0.9-5.5-2.2-7.3-3.8l2.8-6.2c1.8,1.4,3.9,2.5,6.5,3.4c2.6,0.9,5.1,1.3,7.7,1.3   c3.2,0,5.6-0.5,7.2-1.5c1.6-1,2.4-2.4,2.4-4.1c0-1.2-0.4-2.2-1.3-3c-0.9-0.8-2-1.4-3.4-1.9c-1.4-0.5-3.2-1-5.5-1.5   c-3.3-0.8-5.9-1.6-8-2.3c-2-0.8-3.8-2-5.2-3.7c-1.5-1.7-2.2-3.9-2.2-6.7c0-2.4,0.6-4.5,1.9-6.5c1.3-1.9,3.2-3.5,5.8-4.6   c2.6-1.1,5.8-1.7,9.6-1.7c2.6,0,5.2,0.3,7.8,1c2.5,0.7,4.7,1.6,6.6,2.8l-2.5,6.2c-1.9-1.1-3.9-1.9-5.9-2.5c-2.1-0.6-4-0.9-6-0.9   c-3.2,0-5.5,0.5-7,1.6c-1.5,1.1-2.3,2.5-2.3,4.2c0,1.2,0.4,2.2,1.3,3c0.9,0.8,2,1.4,3.4,1.8c1.4,0.5,3.2,1,5.5,1.5   c3.2,0.7,5.8,1.5,7.9,2.3c2,0.8,3.8,2,5.3,3.7c1.5,1.6,2.2,3.9,2.2,6.6c0,2.4-0.6,4.5-1.9,6.5c-1.3,1.9-3.2,3.5-5.9,4.6   c-2.6,1.1-5.8,1.7-9.6,1.7C460.1,65.7,456.9,65.2,453.8,64.3z"/>
	<path class="st1" d="M492.7,22.1h8v43h-8V22.1z"/>
	<path class="st1" d="M523.5,62.9c-3.5-1.9-6.3-4.6-8.3-7.9c-2-3.4-3-7.2-3-11.3c0-4.2,1-8,3-11.3c2-3.4,4.8-6,8.3-7.9   c3.5-1.9,7.5-2.9,11.9-2.9c4.4,0,8.3,1,11.9,2.9c3.5,1.9,6.3,4.5,8.3,7.9c2,3.4,3,7.2,3,11.4c0,4.2-1,8-3,11.4   c-2,3.4-4.8,6-8.3,7.9c-3.5,1.9-7.5,2.9-11.9,2.9C530.9,65.7,527,64.8,523.5,62.9z M543.1,56.8c2.3-1.3,4.1-3.1,5.4-5.4   c1.3-2.3,2-4.9,2-7.8c0-2.9-0.7-5.5-2-7.8c-1.3-2.3-3.1-4.1-5.4-5.4c-2.3-1.3-4.9-1.9-7.7-1.9c-2.9,0-5.5,0.6-7.7,1.9   c-2.3,1.3-4.1,3.1-5.4,5.4c-1.3,2.3-2,4.9-2,7.8c0,2.9,0.7,5.5,2,7.8c1.3,2.3,3.1,4.1,5.4,5.4c2.3,1.3,4.9,1.9,7.7,1.9   C538.2,58.7,540.8,58.1,543.1,56.8z"/>
</g>
<path class="st2" d="M30.4,53.8L30.4,53.8L9.6,33c-5.9,5.9-5.9,15.5,0,21.4c0,0,0,0,0,0l20.8,20.8l0,0l20.8-20.8  c5.9-5.9,5.9-15.5,0-21.4c0,0,0,0,0,0L30.4,53.8z"/>
<path class="st3" d="M72,24.8L51.2,4l0,0L30.4,24.8c-5.9,5.9-5.9,15.5,0,21.4c0,0,0,0,0,0l0,0l20.8-20.8l0,0L72,46.2l0,0  C77.9,40.3,77.9,30.7,72,24.8C72,24.8,72,24.8,72,24.8z"/>
</svg>