<?xml version="1.0" encoding="UTF-8"?>
<svg version="1.1" id="Layer_1" xmlns="http://www.w3.org/2000/svg" xmlns:xlink="http://www.w3.org/1999/xlink" x="0px" y="0px" width="580" height="78.9" viewBox="0 0 580 78.9" xml:space="preserve">
<style type="text/css">
	.st1{fill:#999999;}
	.st2{fill:#999999;}
	.st3{fill:#FF4C57;}
</style>
<path class="st2" d="M30.4,53.8L30.4,53.8L9.6,33c-5.9,5.9-5.9,15.5,0,21.4c0,0,0,0,0,0l20.8,20.8l0,0l20.8-20.8  c5.9-5.9,5.9-15.5,0-21.4c0,0,0,0,0,0L30.4,53.8z"/>
<path class="st3" d="M72,24.8L51.2,4l0,0L30.4,24.8c-5.9,5.9-5.9,15.5,0,21.4c0,0,0,0,0,0l0,0l20.8-20.8l0,0L72,46.2l0,0  C77.9,40.3,77.9,30.7,72,24.8C72,24.8,72,24.8,72,24.8z"/>
</svg>
